<?xml version="1.0" standalone="no"?>
<!DOCTYPE svg PUBLIC "-//W3C//DTD SVG 20010904//EN"
 "http://www.w3.org/TR/2001/REC-SVG-20010904/DTD/svg10.dtd">
<svg version="1.0" xmlns="http://www.w3.org/2000/svg"
 width="5158.000000pt" height="1080.000000pt" viewBox="0 0 5158.000000 1080.000000"
 preserveAspectRatio="xMidYMid meet">

<g transform="translate(0.000000,1080.000000) scale(0.100000,-0.100000)" stroke="none">
<path d="M1178 10780 c-130 -27 -240 -65 -363 -126 -401 -198 -697 -573 -800
-1014 -13 -57 -15 -552 -15 -4235 0 -3683 2 -4178 15 -4235 90 -384 321 -715
650 -930 156 -101 344 -177 540 -217 86 -17 263 -18 4195 -18 3932 0 4109 1
4195 18 599 122 1053 560 1190 1147 13 57 15 552 15 4235 0 3683 -2 4178 -15
4235 -136 584 -601 1034 -1184 1144 -75 14 -483 16 -4210 15 -3967 0 -4129 -1
-4213 -19z m1532 -3880 l0 -940 840 0 840 0 0 940 0 940 570 0 570 0 0 -2370
0 -2370 -570 0 -570 0 0 990 0 990 -840 0 -840 0 0 -990 0 -990 -570 0 -570 0
0 2370 0 2370 570 0 570 0 0 -940z m6710 500 l0 -440 -1012 -2 -1013 -3 -3
-542 -2 -543 925 0 925 0 0 -440 0 -440 -922 -2 -923 -3 -3 -942 -2 -943 -570
0 -570 0 0 2370 0 2370 1585 0 1585 0 0 -440z"/>
<path d="M22450 6050 l0 -2500 200 0 200 0 0 2500 0 2500 -200 0 -200 0 0
-2500z"/>
<path d="M33130 8341 c-77 -24 -148 -90 -168 -160 -16 -50 -15 -133 0 -185 20
-64 91 -131 162 -151 72 -21 159 -15 223 16 121 59 171 224 105 350 -31 60
-93 113 -150 129 -42 11 -135 12 -172 1z"/>
<path d="M14340 5920 l0 -2370 200 0 200 0 0 1135 0 1135 1355 0 1355 0 0
-1135 0 -1135 200 0 200 0 0 2370 0 2370 -200 0 -200 0 0 -1065 0 -1065 -1355
0 -1355 0 0 1065 0 1065 -200 0 -200 0 0 -2370z"/>
<path d="M29310 5920 l0 -2370 200 0 200 0 0 1110 0 1110 1105 0 1105 0 0 170
0 170 -1105 0 -1105 0 0 920 0 920 1270 0 1270 0 0 170 0 170 -1470 0 -1470 0
0 -2370z"/>
<path d="M20135 7130 c-429 -42 -813 -278 -1066 -655 -111 -165 -218 -416
-263 -615 -44 -197 -51 -278 -50 -580 0 -323 8 -393 64 -608 173 -649 673
-1099 1303 -1173 145 -17 426 -7 560 20 278 56 513 178 702 365 87 87 185 205
185 223 -1 4 -55 48 -121 97 l-119 88 -22 -28 c-49 -64 -158 -169 -232 -226
-201 -151 -428 -221 -726 -221 -332 0 -576 99 -805 328 -261 261 -404 623
-405 1023 l0 112 1256 0 1257 0 -6 243 c-6 256 -21 382 -63 552 -73 288 -191
505 -378 691 -193 193 -404 301 -676 348 -110 19 -294 26 -395 16z m310 -342
c447 -68 783 -506 812 -1060 l6 -108 -1056 0 -1056 0 5 38 c67 496 321 893
679 1058 181 84 380 107 610 72z"/>
<path d="M25230 7130 c-380 -40 -661 -190 -890 -477 l-58 -71 -6 156 c-3 86
-9 196 -12 245 l-6 87 -179 0 -179 0 0 -2435 0 -2435 195 0 195 0 0 889 0 889
108 -107 c179 -181 353 -279 597 -340 137 -34 247 -44 439 -38 151 4 197 9
277 30 205 54 356 138 506 280 273 260 427 596 495 1077 9 65 13 204 13 440
-1 305 -3 361 -23 485 -104 667 -413 1105 -890 1265 -162 54 -400 79 -582 60z
m312 -359 c97 -25 182 -59 256 -102 71 -42 226 -194 280 -276 132 -196 218
-456 252 -758 13 -117 13 -484 0 -616 -52 -523 -232 -885 -534 -1073 -167
-105 -376 -148 -609 -127 -220 21 -394 79 -545 183 -120 82 -259 243 -326 375
l-26 52 0 853 0 853 29 62 c156 329 448 544 806 592 108 15 327 5 417 -18z"/>
<path d="M35860 7130 c-217 -21 -425 -97 -610 -223 -99 -68 -271 -241 -341
-344 l-56 -83 -6 98 c-4 53 -7 169 -7 257 0 88 -3 177 -6 198 l-7 37 -183 0
-184 0 0 -1760 0 -1760 195 0 195 0 0 1208 c0 1186 0 1208 20 1260 68 179 168
332 309 473 154 154 307 241 504 286 98 23 363 23 463 0 298 -68 460 -225 540
-527 42 -156 44 -212 44 -1482 l0 -1218 195 0 196 0 -4 1268 c-3 1122 -5 1279
-20 1369 -48 296 -137 501 -286 656 -108 113 -215 179 -372 230 -151 50 -402
74 -579 57z"/>
<path d="M39211 7130 c-302 -29 -555 -123 -772 -286 -247 -187 -386 -414 -406
-666 l-6 -78 197 0 196 0 0 38 c1 130 69 272 190 392 216 216 541 312 915 270
385 -44 636 -243 721 -572 13 -48 18 -129 21 -344 l5 -282 -483 -5 c-502 -5
-588 -11 -799 -53 -557 -111 -927 -409 -1022 -824 -27 -119 -29 -336 -5 -445
95 -418 424 -704 894 -774 120 -18 365 -14 499 9 215 37 429 123 617 246 39
27 123 99 184 160 l112 112 5 -32 c2 -17 11 -92 20 -166 8 -74 24 -166 33
-205 l18 -70 213 -3 c200 -2 213 -1 208 15 -2 10 -16 56 -30 103 -71 241 -76
331 -76 1416 0 610 -4 979 -11 1050 -41 404 -230 686 -574 854 -194 95 -363
134 -630 143 -77 3 -182 1 -234 -3z m1059 -2223 l0 -392 -45 -79 c-174 -305
-459 -504 -835 -583 -128 -27 -406 -24 -515 5 -268 73 -467 262 -526 502 -19
79 -17 250 5 330 94 345 477 562 1066 603 25 2 226 4 448 5 l402 2 0 -393z"/>
<path d="M43092 7130 c-395 -41 -718 -237 -956 -578 l-51 -73 -6 153 c-4 84
-7 217 -8 296 l-1 142 -185 0 -185 0 0 -1760 0 -1760 190 0 190 0 0 1202 0
1203 25 65 c70 182 164 329 300 465 147 148 290 233 472 282 87 23 117 26 268
27 144 0 184 -4 260 -23 257 -65 411 -208 494 -456 61 -185 61 -179 61 -1534
l0 -1231 195 0 195 0 0 1225 c0 794 -4 1260 -11 1323 -32 296 -115 528 -249
696 -133 167 -336 278 -585 320 -116 20 -307 27 -413 16z"/>
<path d="M46515 7130 c-746 -66 -1241 -600 -1340 -1448 -18 -150 -20 -546 -4
-708 32 -336 138 -646 303 -889 77 -114 257 -296 360 -365 96 -64 255 -140
351 -168 169 -50 229 -57 470 -57 215 0 238 2 342 27 455 109 803 397 950 788
30 78 63 229 63 288 l0 42 -184 0 -184 0 -11 -80 c-55 -373 -338 -647 -750
-727 -125 -24 -348 -22 -472 5 -481 101 -780 498 -848 1124 -17 148 -14 571 4
718 45 361 158 629 349 829 170 176 368 267 630 290 236 21 462 -25 638 -130
247 -146 408 -396 448 -696 l13 -93 183 0 184 0 0 44 c0 69 -36 263 -66 351
-61 185 -156 337 -294 475 -243 243 -543 368 -920 383 -69 3 -165 2 -215 -3z"/>
<path d="M49952 7129 c-421 -40 -810 -283 -1058 -659 -167 -255 -271 -555
-304 -879 -15 -151 -12 -495 5 -641 87 -739 556 -1285 1228 -1432 90 -20 131
-22 342 -22 212 0 252 2 345 22 354 77 614 235 828 506 34 42 62 79 62 81 0 3
-54 46 -121 96 l-121 91 -31 -38 c-47 -60 -155 -165 -224 -217 -191 -146 -431
-219 -723 -220 -342 -1 -605 110 -832 352 -239 254 -362 568 -383 979 l-6 132
1262 0 1262 0 -6 233 c-9 321 -38 502 -112 716 -76 217 -178 384 -330 537
-214 215 -469 332 -796 363 -127 12 -164 12 -287 0z m343 -345 c169 -32 326
-116 450 -241 203 -202 319 -483 342 -825 l6 -98 -1057 0 -1057 0 7 53 c18
149 77 353 143 489 231 483 668 716 1166 622z"/>
<path d="M33010 5310 l0 -1760 200 0 200 0 0 1760 0 1760 -200 0 -200 0 0
-1760z"/>
</g>
</svg>
