<?xml version="1.0" encoding="UTF-8"?>
<svg version="1.1" viewBox="0 0 800 800" xmlns="http://www.w3.org/2000/svg">
    <defs>
        <linearGradient id="b" x1="50%" x2="50%" y2="100%">
            <stop stop-color="hsl(162, 100%, 58%)" offset="0" />
            <stop stop-color="hsl(270, 73%, 53%)" offset="1" />
        </linearGradient>
        <filter id="c" x="-100%" y="-100%" width="400%" height="400%"
            color-interpolation-filters="sRGB">
            <feGaussianBlur x="0%" y="0%" width="100%" height="100%" edgeMode="none"
                in="SourceGraphic" result="blur" stdDeviation="17 8" />
        </filter>
        <filter id="a" x="-100%" y="-100%" width="400%" height="400%"
            color-interpolation-filters="sRGB">
            <feGaussianBlur x="0%" y="0%" width="100%" height="100%" edgeMode="none"
                in="SourceGraphic" result="blur" stdDeviation="10 17" />
        </filter>
    </defs>
    <g fill="none" stroke="url(#b)" stroke-width="16">
        <path
            d="m389.14 255.33c4.4487-8.9896 17.269-8.9896 21.718 0l137.87 278.6c3.9847 8.0518-1.8742 17.488-10.858 17.488h-275.74c-8.9835 0-14.842-9.4366-10.858-17.488l137.87-278.6z"
            filter="url(#c)" />
        <path
            d="m443.14 255.33c4.4487-8.9896 17.269-8.9896 21.718 0l137.87 278.6c3.9847 8.0518-1.8742 17.488-10.858 17.488h-275.74c-8.9835 0-14.842-9.4366-10.858-17.488l137.87-278.6z"
            filter="url(#a)" opacity=".25" />
        <path
            d="m335.14 255.33c4.4487-8.9896 17.269-8.9896 21.718 0l137.87 278.6c3.9847 8.0518-1.8742 17.488-10.858 17.488h-275.74c-8.9835 0-14.842-9.4366-10.858-17.488l137.87-278.6z"
            filter="url(#a)" opacity=".25" />
        <path
            d="m389.14 255.33c4.4487-8.9896 17.269-8.9896 21.718 0l137.87 278.6c3.9847 8.0518-1.8742 17.488-10.858 17.488h-275.74c-8.9835 0-14.842-9.4366-10.858-17.488l137.87-278.6z" />
    </g>
</svg>