<svg xmlns="http://www.w3.org/2000/svg" width="30" height="33" viewBox="0 0 30 33" fill="none">
  <g clip-path="url(#clip0_309_144)">
    <path d="M20 4.125H6.25C4.875 4.125 3.75 5.3625 3.75 6.875V26.125C3.75 27.6375 4.875 28.875 6.25 28.875H23.75C25.125 28.875 26.25 27.6375 26.25 26.125V11L20 4.125ZM10 9.625H13.75C14.4375 9.625 15 10.2438 15 11C15 11.7562 14.4375 12.375 13.75 12.375H10C9.3125 12.375 8.75 11.7562 8.75 11C8.75 10.2438 9.3125 9.625 10 9.625ZM20 23.375H10C9.3125 23.375 8.75 22.7563 8.75 22C8.75 21.2437 9.3125 20.625 10 20.625H20C20.6875 20.625 21.25 21.2437 21.25 22C21.25 22.7563 20.6875 23.375 20 23.375ZM20 17.875H10C9.3125 17.875 8.75 17.2563 8.75 16.5C8.75 15.7437 9.3125 15.125 10 15.125H20C20.6875 15.125 21.25 15.7437 21.25 16.5C21.25 17.2563 20.6875 17.875 20 17.875ZM18.75 11V6.875L23.75 12.375H20C19.3125 12.375 18.75 11.7562 18.75 11Z"/>
  </g>
  <defs>
    <clipPath id="clip0_309_144">
      <rect width="30" height="33" fill="white"/>
    </clipPath>
  </defs>
</svg>