<?xml version="1.0" standalone="no"?>
<!DOCTYPE svg PUBLIC "-//W3C//DTD SVG 20010904//EN"
 "http://www.w3.org/TR/2001/REC-SVG-20010904/DTD/svg10.dtd">
<svg version="1.0" xmlns="http://www.w3.org/2000/svg"
 width="1080.000000pt" height="1080.000000pt" viewBox="0 0 1080.000000 1080.000000"
 preserveAspectRatio="xMidYMid meet">

<g transform="translate(0.000000,1080.000000) scale(0.100000,-0.100000)" stroke="none">
<path d="M1178 10780 c-130 -27 -240 -65 -363 -126 -401 -198 -697 -573 -800
-1014 -13 -57 -15 -552 -15 -4235 0 -3683 2 -4178 15 -4235 90 -384 321 -715
650 -930 156 -101 344 -177 540 -217 86 -17 263 -18 4195 -18 3932 0 4109 1
4195 18 599 122 1053 560 1190 1147 13 57 15 552 15 4235 0 3683 -2 4178 -15
4235 -136 584 -601 1034 -1184 1144 -75 14 -483 16 -4210 15 -3967 0 -4129 -1
-4213 -19z m1532 -3880 l0 -940 840 0 840 0 0 940 0 940 570 0 570 0 0 -2370
0 -2370 -570 0 -570 0 0 990 0 990 -840 0 -840 0 0 -990 0 -990 -570 0 -570 0
0 2370 0 2370 570 0 570 0 0 -940z m6710 500 l0 -440 -1012 -2 -1013 -3 -3
-542 -2 -543 925 0 925 0 0 -440 0 -440 -922 -2 -923 -3 -3 -942 -2 -943 -570
0 -570 0 0 2370 0 2370 1585 0 1585 0 0 -440z"/>
</g>
</svg>
