<?xml version="1.0" standalone="no"?>
<!DOCTYPE svg PUBLIC "-//W3C//DTD SVG 20010904//EN"
 "http://www.w3.org/TR/2001/REC-SVG-20010904/DTD/svg10.dtd">
<svg version="1.0" xmlns="http://www.w3.org/2000/svg"
 width="60.000000pt" height="60.000000pt" viewBox="0 0 60.000000 60.000000"
 preserveAspectRatio="xMidYMid meet">

<g transform="translate(0.000000,60.000000) scale(0.100000,-0.100000)" stroke="none">
<path d="M289 525 c-30 -16 -49 -60 -49 -111 0 -33 -1 -34 -40 -34 l-40 0 0
-40 0 -40 40 0 40 0 0 -120 0 -120 40 0 40 0 0 120 0 120 34 0 c26 0 35 5 40
23 13 49 8 57 -34 57 -36 0 -40 3 -40 24 0 44 10 56 46 56 33 0 34 1 34 40 l0
40 -42 0 c-24 -1 -55 -7 -69 -15z"/>
</g>
</svg>
