<svg xmlns="http://www.w3.org/2000/svg" width="30" height="30" viewBox="0 0 30 30">
  <g clip-path="url(#clip0_309_307)">
    <path d="M24.85 23.0875C25.45 22.125 25.7875 21 25.7125 19.7625C25.55 17.075 23.4125 14.8 20.75 14.5125C17.35 14.1375 14.475 16.775 14.475 20.1C14.475 23.2125 16.9875 25.725 20.0875 25.725C21.1875 25.725 22.2125 25.4 23.075 24.85L26.0875 27.8625C26.575 28.35 27.375 28.35 27.8625 27.8625C28.35 27.375 28.35 26.575 27.8625 26.0875L24.85 23.0875ZM20.1 23.225C18.375 23.225 16.975 21.825 16.975 20.1C16.975 18.375 18.375 16.975 20.1 16.975C21.825 16.975 23.225 18.375 23.225 20.1C23.225 21.825 21.825 23.225 20.1 23.225ZM19.65 12.6C18.725 12.625 17.8375 12.825 17.025 13.1625L16.3375 12.125L12.4875 18.3875C12.0375 19.1125 11.025 19.1875 10.475 18.55L7.82504 15.4625L4.00004 21.5875C3.61254 22.2 2.78754 22.3625 2.20004 21.9375C1.67504 21.55 1.52504 20.825 1.87504 20.2625L6.60004 12.7C7.05004 11.9875 8.06254 11.9125 8.61254 12.55L11.25 15.625L15.225 9.16251C15.7 8.38751 16.825 8.36251 17.325 9.12501L19.65 12.6ZM22.8875 13.225C22.0875 12.875 21.225 12.6625 20.325 12.6125L26 3.62501C26.3875 3.01251 27.2125 2.86251 27.7875 3.28751C28.325 3.67501 28.4625 4.41251 28.1125 4.96251L22.8875 13.225Z"/>
  </g>
  <defs>
    <clipPath id="clip0_309_307">
      <rect width="30" height="30" fill="white"/>
    </clipPath>
  </defs>
</svg>